<svg xmlns="http://www.w3.org/2000/svg" width="80.961" height="80.98"><defs><style>.c,.d{fill:#fff}.d{fill-rule:evenodd}</style></defs><g transform="translate(.961)"><circle cx="40" cy="40" r="40" fill="#1c89f2"/><path class="c" d="M46.511 24.072a1.364 1.364 0 00-1.806.135l-5.606 5.606-2.48-2.48a1.326 1.326 0 10-1.914 1.834l3.72 3.719a.976.976 0 001.375 0l6.819-6.846a1.332 1.332 0 00-.108-1.968z"/><path class="c" d="M57.345 26.715a.8.8 0 00-.594-.755 7.89 7.89 0 01-4.528-4.018 9.169 9.169 0 01-1.106-3.558 7.009 7.009 0 01.027-1.3c.028-.269.081-.565.135-.861a.356.356 0 00.026-.163v-.243a.92.92 0 00-.511-.728c-.378-.216-.729-.43-1.105-.673l-.216-.136c-.566-.324-1.186-.7-1.779-1.079a1.1 1.1 0 00-1.079-.053c-.08.053-.189.106-.3.188l-.107.081a13.088 13.088 0 01-1.159.835c-.189.108-.351.164-.513.243a11.181 11.181 0 01-4.313.7 7.793 7.793 0 01-4.853-2.075.964.964 0 00-1.266-.136 86.408 86.408 0 01-3.154 1.751 1.059 1.059 0 00-.486.486.639.639 0 00-.054.216 1.2 1.2 0 00.027.43A8.071 8.071 0 0130.545 17v.026a7.4 7.4 0 01-.054 1.349 6.21 6.21 0 01-.324 1.4 9.877 9.877 0 01-3.45 4.583 4.077 4.077 0 01-.485.323 7.986 7.986 0 01-1.321.539l-.108.054a.872.872 0 00-.324.136.922.922 0 00-.458.511.614.614 0 00-.055.215v.781c0 .324 0 .674-.026 1v.648c0 .433-.028.889-.028 1.32v.3a.945.945 0 00.7.81 7.949 7.949 0 014.34 3.8 8.138 8.138 0 011.159 5.1 5.152 5.152 0 01-.161.889c0 .029-.027.081-.027.109a.833.833 0 00.485.889c1.186.728 2.211 1.348 3.235 1.941a1.142 1.142 0 00.485.161.849.849 0 00.431-.108 1.86 1.86 0 00.27-.216 6.007 6.007 0 011.213-.916 9.118 9.118 0 015.149-.916 7.222 7.222 0 014.583 1.968 1.2 1.2 0 00.728.405h.081a1.287 1.287 0 00.674-.216c.566-.324 1.105-.62 1.483-.835s.916-.513 1.509-.836a1.124 1.124 0 00.566-.566.6.6 0 00.054-.215 1.074 1.074 0 00-.054-.513c-.054-.215-.08-.4-.135-.619a7.519 7.519 0 01-.026-1.106 8.186 8.186 0 01.215-1.348 8.78 8.78 0 01.7-1.86 9.009 9.009 0 013.5-3.881 4.882 4.882 0 011.429-.539.874.874 0 00.648-.485.513.513 0 00.054-.19c0-.026.026-.053.026-.106a.337.337 0 01.027-.163c0-.3.028-.565.028-.861.026-1 .026-1.969.026-2.886a.332.332 0 00.038-.161zm-6.955 3.018a9.476 9.476 0 01-.648 2.426 9.861 9.861 0 01-4.313 4.851 10.237 10.237 0 01-5.391 1.215 9.658 9.658 0 01-7.763-4.719 10.119 10.119 0 01-1.348-6.389 9.256 9.256 0 01.243-1.24 12.439 12.439 0 01.485-1.4 2.673 2.673 0 01.189-.405c0-.026.027-.026.027-.054a9.9 9.9 0 014.043-4.178 9.705 9.705 0 015.31-1.213 10.489 10.489 0 012.238.405 9.982 9.982 0 015.958 5.013 9.4 9.4 0 01.973 5.687z"/><path class="d" d="M37.39 65.51H24.967l1.3 3.631h11.13z"/><path class="c" d="M24.864 63.995h12.534v-1.149a8.2 8.2 0 00-3.073-6.418l-12.014-9.637a1.956 1.956 0 00-2.474-.059l-.366.371a1.921 1.921 0 00-.389 1.105 1.941 1.941 0 00.63 1.51l7.956 7.285a.839.839 0 01.27.589.828.828 0 01-.222.6.839.839 0 01-.588.27.819.819 0 01-.6-.224l-8.07-7.4a3.662 3.662 0 01-1.066-2.7 3.552 3.552 0 01.591-1.879l-.438-12.96a2.158 2.158 0 00-.649-1.578 2.032 2.032 0 00-1.549-.624 2.2 2.2 0 00-2.21 2.2V50.75a4.981 4.981 0 001.59 3.638z"/><path class="d" d="M42.681 69.142h11.13l1.3-3.631H42.69z"/><path class="c" d="M65.351 54.386a4.981 4.981 0 001.59-3.639V33.302a2.2 2.2 0 00-2.21-2.2 2.032 2.032 0 00-1.549.624 2.147 2.147 0 00-.648 1.578l-.437 12.961a3.548 3.548 0 01.591 1.878 3.66 3.66 0 01-1.066 2.7l-8.07 7.4a.818.818 0 01-.6.223.834.834 0 01-.588-.27.825.825 0 01-.223-.6.833.833 0 01.27-.588l7.956-7.285a1.965 1.965 0 00.243-2.616l-.368-.37a1.954 1.954 0 00-2.474.059l-12.014 9.637a8.2 8.2 0 00-3.073 6.418V64h12.534z"/></g></svg>