<svg xmlns="http://www.w3.org/2000/svg" width="80.002" height="80.002"><defs><style>.c{fill:#fff}</style></defs><g transform="translate(.001)"><circle cx="40" cy="40" r="40" fill="#1c89f2"/><path class="c" d="M40.147 38.012c-.32 0-.64 0-.96.013a1.446 1.446 0 00-1.416 1.401 1.471 1.471 0 001.285 1.49 13.461 13.461 0 002.548.045 1.7 1.7 0 001.2-.461.857.857 0 01.75-.264 8.728 8.728 0 001.861.009c.351-.024.7-.047 1.055-.049a23.359 23.359 0 005.791-.724 7.483 7.483 0 003.885-2.026 1.968 1.968 0 011.608-.708 1.688 1.688 0 001.773-1.743c.016-2.888.011-5.776 0-8.665a1.644 1.644 0 00-.947-1.504 2.22 2.22 0 00-1.269-.218.848.848 0 01-1.008-.885 19.622 19.622 0 00-.593-3.33c-1.3-5.171-4.384-8.305-9.425-9.58-.8-.2-1.621-.329-2.42-.451a52.503 52.503 0 01-1.319-.215h-5.2c-.3.054-.644.108-.991.16a26.611 26.611 0 00-3.115.609 11.868 11.868 0 00-7.984 6.52 20.44 20.44 0 00-1.628 6.069c-.136.976-.263 1.088-1.231 1.1a1.815 1.815 0 00-2 2.023q-.006 4.125 0 8.251a1.75 1.75 0 001.843 1.873c.609.01 1.219.009 1.831.006h.655c1.54 0 2.2-.66 2.21-2.2a746.31 746.31 0 000-7.775 2.049 2.049 0 00-.7-1.766.821.821 0 01-.284-.811c.118-1.006.263-1.9.443-2.72.983-4.5 3.629-7.309 7.863-8.336a24.166 24.166 0 0111.6.036 9.555 9.555 0 015.861 3.958 16.125 16.125 0 012.243 7.265.679.679 0 01-.305.628 1.936 1.936 0 00-.671 1.606 595.055 595.055 0 000 8.129 1.838 1.838 0 001.1 1.823.447.447 0 01.211.236l.16.271-.249.205a10.188 10.188 0 01-3 1.065 30.144 30.144 0 01-5.7.54l-.906.03a2.294 2.294 0 01-2.086-.709.922.922 0 00-.68-.216h-.854c-.283 0-.565-.005-.849-.005M40.05 52.293l.718-1.86c.246-.646.508-1.289.728-1.945a1.575 1.575 0 011.194-1.119 11.464 11.464 0 004.241-2.056 1.329 1.329 0 011.6-.121c3.549 1.964 7.166 3.8 10.625 5.929a7.159 7.159 0 012.478 2.572 27.212 27.212 0 012.9 9.3 1.679 1.679 0 01-.383 1.16 9.747 9.747 0 01-3.124 2.955 26.1 26.1 0 01-9.258 3.363 66.635 66.635 0 01-15.487.911 44.523 44.523 0 01-13-2.193 17.082 17.082 0 01-6.21-3.5 11.889 11.889 0 01-.886-.956 2.8 2.8 0 01-.648-2.625 32.262 32.262 0 012.461-7.781 7.814 7.814 0 013.055-3.375c3.389-2.01 6.881-3.831 10.323-5.743a1.331 1.331 0 011.6.091 11.6 11.6 0 004.3 2.083 1.559 1.559 0 011.154 1.08c.464 1.279.961 2.546 1.445 3.819l.179.015m10.189 4.176c-1.205 0-2.41.01-3.615-.006-.4-.005-.6.108-.561.536a2.807 2.807 0 010 .533c-.034.4.128.574.541.573q3.645-.013 7.289 0c.366 0 .561-.131.536-.521a3.157 3.157 0 010-.533c.043-.434-.135-.6-.576-.586-1.205.022-2.41.007-3.615.007"/><path class="c" d="M40.079 14.319a20.3 20.3 0 015.74.763 7.992 7.992 0 015.681 5.989q.159.6.294 1.21a2.88 2.88 0 01-.255 2.64 2.781 2.781 0 00-.369 1.716q-.008 4.035 0 8.073a3.769 3.769 0 00.133 1.114c.176.55-.079.69-.543.778a27.584 27.584 0 01-4.356.468c-.4.011-.793-.011-1.188.013a2.476 2.476 0 01-1.886-.489 2.185 2.185 0 00-1.229-.388 12.86 12.86 0 00-3.546.049 3.291 3.291 0 00-.01 6.434 12.47 12.47 0 003.839.016.844.844 0 00.288-.07c1.483-.819 3.119-.494 4.691-.63.145-.013.355-.077.424.1s-.13.268-.245.361a13.417 13.417 0 01-7.159 3.315 6.975 6.975 0 01-3.078-.489 15.546 15.546 0 01-8.9-7.918.9.9 0 010-.893 3.641 3.641 0 00.36-1.666v-8.191a3.857 3.857 0 00-.708-2.346.764.764 0 01-.2-.6 17.451 17.451 0 01.938-3.791 7.984 7.984 0 015.593-4.88 20.292 20.292 0 015.691-.691"/></g></svg>