<svg xmlns="http://www.w3.org/2000/svg" width="80.002" height="80.002"><defs><style>.c{fill:#fff}</style></defs><g transform="translate(.002)"><circle cx="40" cy="40" r="40" fill="#1c89f2"/><path class="c" d="M67.987 39.757L62.279 39l-3.488-10.464a2.8 2.8 0 00-2.664-1.9h-9.764v-5.39a2.205 2.205 0 00-2.219-2.22H12.052a2.206 2.206 0 00-2.219 2.22v31.701a2.841 2.841 0 002.854 2.854h4.5a7.99 7.99 0 0015.981 0h13.955a7.99 7.99 0 1015.98 0h4.5a2.409 2.409 0 002.41-2.41V42.1a2.239 2.239 0 00-2.026-2.343zM25.243 60.96a5.223 5.223 0 115.223-5.223 5.353 5.353 0 01-5.223 5.223m17.186-12.685h-28.6a1.259 1.259 0 01-1.266-1.265V23.118a1.26 1.26 0 011.265-1.265h28.6a1.26 1.26 0 011.265 1.265V47.01a1.26 1.26 0 01-1.264 1.265zm4.871-8.983a1.412 1.412 0 01-1.429-1.405v-7.729a1.411 1.411 0 011.429-1.405h8.412a1.46 1.46 0 011.35.936l2.778 8.119a1.019 1.019 0 01-1.033 1.328zm7.876 21.642a5.2 5.2 0 115.2-5.2 5.327 5.327 0 01-5.2 5.2"/><path class="c" d="M37.546 40.835H18.711a.771.771 0 00-.76.761v1.458a.77.77 0 00.76.761h18.835a.772.772 0 00.761-.761v-1.458a.818.818 0 00-.761-.761M19.472 32.784h1.839v5.45a.772.772 0 00.761.761h1.4a.772.772 0 00.761-.761v-5.45h1.77a.989.989 0 00.824-.508 1 1 0 00-.062-.951l-3.3-4.5a.889.889 0 00-1.459 0l-3.3 4.566a.862.862 0 00-.064.951.912.912 0 00.83.442zM30.19 32.784h1.839v5.45a.772.772 0 00.761.761h1.459a.772.772 0 00.761-.761v-5.45h1.775a.989.989 0 00.825-.508 1.006 1.006 0 00-.064-.951l-3.3-4.5a.889.889 0 00-1.459 0l-3.3 4.566a.862.862 0 00-.064.951.88.88 0 00.767.442z"/></g></svg>