<svg xmlns="http://www.w3.org/2000/svg" width="56" height="56"><defs><style>.a{fill:#fff}</style></defs><path class="a" d="M28 20.306A7.693 7.693 0 1035.693 28 7.693 7.693 0 0028 20.306m0 12.822A5.128 5.128 0 1133.129 28 5.129 5.129 0 0128 33.128M36.334 17.743a1.923 1.923 0 101.923 1.923 1.923 1.923 0 00-1.923-1.923"/><path class="a" d="M28 0a28 28 0 1028 28A28 28 0 0028 0m16.027 35.052a8.985 8.985 0 01-8.975 8.975h-14.1a8.985 8.985 0 01-8.975-8.975v-14.1a8.986 8.986 0 018.975-8.975h14.1a8.986 8.986 0 018.975 8.975z"/></svg>