<svg xmlns="http://www.w3.org/2000/svg" width="314" height="106.846"><defs><clipPath id="a"><path class="a" d="M0 0h314v106.846H0z"/></clipPath><style>.a{fill:#fff}</style></defs><g clip-path="url(#a)"><path class="a" d="M142.451 64.332a7.1 7.1 0 01-2.524 3.31 9.045 9.045 0 01-3.582 1.574 23.4 23.4 0 01-5.1.488h-25.23a.43.43 0 01-.489-.488V35.899c0-.361.16-.543.489-.543h23.657q11.936 0 11.936 8.791 0 5.155-2.493 7.217 4.122 2.008 4.124 8.085a13.719 13.719 0 01-.788 4.884m-6.756-23.306a7.789 7.789 0 00-4.667-1.167h-21.106v9.713h21.162q3.2 0 4.394-.922 1.792-.922 1.792-3.905a4.324 4.324 0 00-1.574-3.719M137.27 55a6.2 6.2 0 00-1.981-.76 13.889 13.889 0 00-2.957-.271h-22.41v11.287h22.572q3.311 0 4.856-1.438a5.689 5.689 0 001.546-4.369q0-3.2-1.626-4.449M186.16 59.612a.317.317 0 01.053.219q0 5.482-3.472 7.977-2.878 1.9-8.736 1.9h-12.318a35.61 35.61 0 01-6.159-.461 12.233 12.233 0 01-4.26-1.493 8.986 8.986 0 01-2.522-2.577 10.55 10.55 0 01-1.439-3.772 72.108 72.108 0 01-.487-10.58q0-9.224 3.364-12.535h-.055q3.311-3.255 12.427-3.256h11.4q6.075 0 9.141 2.441t3.067 7.38v.11c0 .324-.145.488-.436.488h-3.417a.431.431 0 01-.487-.488v-.11q0-5.371-7.867-5.371H162.23a27.137 27.137 0 00-4.964.379 11.655 11.655 0 00-3.121.977q-2.064 1.25-2.659 4.613a16.682 16.682 0 00-.272 3.065q-.053 2.142-.054 5.454a34.8 34.8 0 00.407 5.887 7.711 7.711 0 001.166 3.283q1.9 2.171 8.574 2.17h12.645a13.319 13.319 0 005.695-.922q2.227-1.029 2.224-4.4v-.161a.434.434 0 01.491-.49h3.472a.048.048 0 01.053.055zM235.213 69.704a.433.433 0 01-.49-.488V38.993h-1.025l-17.69 30.6a.523.523 0 01-.38.109h-2.333a.476.476 0 01-.218-.055l-17.53-30.654h-.976v30.223a.433.433 0 01-.49.488h-3.526a.432.432 0 01-.489-.488V35.9q0-.543.489-.544h7.813a.609.609 0 01.273.055l15.9 28.053 16.386-28a.537.537 0 01.38-.109h7.381q.379 0 .38.544v33.317c0 .325-.127.488-.38.488zM243.947 69.704a.432.432 0 01-.487-.488V35.9c0-.362.163-.544.487-.544h28.976q.432 0 .433.544v3.418c0 .363-.145.542-.433.542h-25.07v9.93h24.254c.29 0 .436.182.436.543v3.417c0 .363-.146.543-.436.543h-24.253v10.961h25.07c.288 0 .433.163.433.49v3.472c0 .325-.145.488-.433.488zM313.375 61.7a9.76 9.76 0 01-2.033 4.639 9.379 9.379 0 01-4.5 2.5 28.393 28.393 0 01-7.652.868h-22.789a.432.432 0 01-.49-.488v-33.32c0-.361.163-.543.49-.543h21.814q7 0 10.473 1.9a8.992 8.992 0 014.611 6.132q.271 1.573.489 4.178t.217 6.4a39.606 39.606 0 01-.625 7.732m-3.715-10.554q0-7.107-2.007-9.17-2.12-2.117-8.955-2.117h-18.402v25.4h19.264q5.1 0 7-.923a3.949 3.949 0 002.551-3.147 10.761 10.761 0 00.434-2.767q.106-1.843.109-4.449zM43.188 38.249c11.053-11.055 29.626-9.176 38.394-.408 3.956 3.955 15.361 27.07-10.292 52.724-16.008 16.008-44.3 21.763-66.536-.48 1.25.383 11.374 5.7 21.224 5.74 8.522.037 18.736-2.608 27.961-11.832 6.65-6.649 17.151-20.7 6.483-31.371-4.1-4.1-11.614-5.787-19.333-3.964-9.674 2.286-15.344 7.189-19.043 3.49-4.4-4.4 3.128-13.113 5.672-21.154 3.456-10.922 1.413-15.633-1.925-18.969-5.718-5.719-14.069-4.068-18.029-.11.517-.515 1.354-1.354 1.5-1.5 26.98-26.98 57.448 4.311 33.921 27.837"/><path class="a" d="M12.789 15.516a31.73 31.73 0 00-2.435 2 31.6 31.6 0 00-2.14 44.646c.706.777 1.444 1.51 2.207 2.2a54.006 54.006 0 012.368-48.846M112.81 94.589a4.272 4.272 0 011.614 1.681 5.34 5.34 0 010 4.88 4.277 4.277 0 01-1.614 1.681 4.486 4.486 0 01-2.309.6 4.553 4.553 0 01-2.322-.6 4.27 4.27 0 01-1.63-1.681 5.352 5.352 0 010-4.88 4.265 4.265 0 011.63-1.681 4.547 4.547 0 012.322-.6 4.48 4.48 0 012.309.6m-4.017.947a3.029 3.029 0 00-1.176 1.256 4.5 4.5 0 000 3.827 3.018 3.018 0 001.176 1.262 3.317 3.317 0 001.707.439 3.258 3.258 0 001.693-.445 3.082 3.082 0 001.178-1.263 4.5 4.5 0 000-3.82 3.042 3.042 0 00-1.178-1.256 3.52 3.52 0 00-3.4 0M124.061 96.687a2.673 2.673 0 01.9 1.707h-1.138a1.65 1.65 0 00-.529-1.053 1.728 1.728 0 00-1.21-.412 1.5 1.5 0 00-1 .308 1.039 1.039 0 00-.36.83.862.862 0 00.241.635 1.566 1.566 0 00.6.366 10.1 10.1 0 00.987.268 9.932 9.932 0 011.289.372 2.028 2.028 0 01.837.609 1.709 1.709 0 01.347 1.125 1.769 1.769 0 01-.661 1.425 2.663 2.663 0 01-1.759.549 3.369 3.369 0 01-2.094-.615 2.451 2.451 0 01-.955-1.713h1.152a1.5 1.5 0 00.569 1.06 2.055 2.055 0 001.329.405 1.38 1.38 0 00.962-.314 1.059 1.059 0 00.346-.824.9.9 0 00-.248-.668 1.638 1.638 0 00-.615-.379 9.021 9.021 0 00-1.007-.275 9.8 9.8 0 01-1.275-.366 1.954 1.954 0 01-.811-.583 1.626 1.626 0 01-.334-1.08 1.808 1.808 0 01.668-1.459 2.756 2.756 0 011.819-.555 2.9 2.9 0 011.956.634M132.427 96.832a3.228 3.228 0 01.772 2.322v4.174h-1.19v-4.069a2.3 2.3 0 00-.549-1.648 1.968 1.968 0 00-1.492-.576 2.042 2.042 0 00-1.571.634 2.636 2.636 0 00-.589 1.851v3.808h-1.19v-9.682h1.19v4.2a2.444 2.444 0 01.976-1.346 2.819 2.819 0 011.615-.472 2.681 2.681 0 012.028.8M140.139 96.498a3.19 3.19 0 011.283 1.282 3.99 3.99 0 01.465 1.962 3.95 3.95 0 01-.465 1.956 3.191 3.191 0 01-1.283 1.275 4.07 4.07 0 01-3.7 0 3.227 3.227 0 01-1.288-1.275 3.89 3.89 0 01-.472-1.956 3.929 3.929 0 01.472-1.962 3.225 3.225 0 011.288-1.282 4.076 4.076 0 013.7 0m-3.034.889a2.171 2.171 0 00-.877.884 2.973 2.973 0 00-.333 1.471 2.942 2.942 0 00.333 1.459 2.166 2.166 0 00.877.884 2.583 2.583 0 002.368 0 2.169 2.169 0 00.877-.884 2.942 2.942 0 00.333-1.459 2.973 2.973 0 00-.333-1.471 2.173 2.173 0 00-.877-.884 2.583 2.583 0 00-2.368 0M149.107 96.498a3.077 3.077 0 011.171 1.282 4.287 4.287 0 01.425 1.962 4.244 4.244 0 01-.425 1.956 3.083 3.083 0 01-1.171 1.276 3.255 3.255 0 01-1.7.445 2.923 2.923 0 01-1.772-.53 2.686 2.686 0 01-1-1.393v5.233h-1.19V96.145h1.19v1.831a2.687 2.687 0 011-1.392 2.924 2.924 0 011.772-.53 3.255 3.255 0 011.7.445m-3.3.935a2.209 2.209 0 00-.876.923 2.937 2.937 0 00-.315 1.386 2.9 2.9 0 00.315 1.38 2.257 2.257 0 00.876.923 2.445 2.445 0 001.256.327 2.325 2.325 0 001.773-.7 3.153 3.153 0 000-3.859 2.321 2.321 0 00-1.773-.7 2.5 2.5 0 00-1.256.32M157.925 96.498a3.076 3.076 0 011.171 1.282 4.287 4.287 0 01.425 1.962 4.244 4.244 0 01-.425 1.956 3.082 3.082 0 01-1.171 1.276 3.255 3.255 0 01-1.7.445 2.923 2.923 0 01-1.772-.53 2.686 2.686 0 01-1-1.393v5.233h-1.19V96.145h1.19v1.831a2.687 2.687 0 011-1.392 2.924 2.924 0 011.772-.53 3.255 3.255 0 011.7.445m-3.3.935a2.215 2.215 0 00-.877.923 2.946 2.946 0 00-.314 1.386 2.9 2.9 0 00.314 1.38 2.264 2.264 0 00.877.923 2.445 2.445 0 001.256.327 2.325 2.325 0 001.773-.7 3.153 3.153 0 000-3.859 2.321 2.321 0 00-1.773-.7 2.5 2.5 0 00-1.256.32M161.09 93.508a.956.956 0 011.178 0 .743.743 0 010 1.06.955.955 0 01-1.178 0 .743.743 0 010-1.06m1.178 9.818h-1.19v-7.183h1.19zM169.986 96.832a3.228 3.228 0 01.772 2.322v4.174h-1.194v-4.069a2.3 2.3 0 00-.549-1.648 1.967 1.967 0 00-1.492-.576 2.042 2.042 0 00-1.571.634 2.636 2.636 0 00-.589 1.851v3.808h-1.19v-7.183h1.19v1.7a2.444 2.444 0 01.976-1.346 2.819 2.819 0 011.615-.472 2.682 2.682 0 012.028.8M177.306 96.576a2.726 2.726 0 011.014 1.4v-1.831h1.19v7.3a3.644 3.644 0 01-.418 1.766 3 3 0 01-1.178 1.2 3.5 3.5 0 01-1.766.431 3.8 3.8 0 01-2.368-.7 3.083 3.083 0 01-1.163-1.891h1.177a2.028 2.028 0 00.791 1.131 2.532 2.532 0 001.5.412 2.2 2.2 0 001.6-.62 2.316 2.316 0 00.635-1.734v-1.949a2.72 2.72 0 01-1.014 1.4 2.95 2.95 0 01-1.772.524 3.255 3.255 0 01-1.7-.445 3.072 3.072 0 01-1.17-1.275 4.717 4.717 0 010-3.918 3.057 3.057 0 011.17-1.281 3.248 3.248 0 011.7-.445 2.954 2.954 0 011.772.523m-3.192 1.237a3.147 3.147 0 000 3.859 2.3 2.3 0 001.759.7 2.441 2.441 0 001.262-.326 2.277 2.277 0 00.87-.923 2.908 2.908 0 00.315-1.38 2.946 2.946 0 00-.315-1.386 2.223 2.223 0 00-.87-.923 2.488 2.488 0 00-1.262-.32 2.3 2.3 0 00-1.759.7M189.355 96.576a2.726 2.726 0 011.014 1.4v-4.331h1.19v9.681h-1.19v-1.831a2.72 2.72 0 01-1.014 1.4 2.95 2.95 0 01-1.772.524 3.255 3.255 0 01-1.7-.445 3.072 3.072 0 01-1.17-1.275 4.717 4.717 0 010-3.918 3.057 3.057 0 011.17-1.281 3.249 3.249 0 011.7-.445 2.954 2.954 0 011.772.523m-3.192 1.237a3.148 3.148 0 000 3.859 2.3 2.3 0 001.759.7 2.44 2.44 0 001.262-.326 2.276 2.276 0 00.87-.923 2.908 2.908 0 00.315-1.38 2.946 2.946 0 00-.315-1.386 2.222 2.222 0 00-.87-.923 2.488 2.488 0 00-1.262-.321 2.3 2.3 0 00-1.759.7M200.01 99.987h-5.743a2.513 2.513 0 00.7 1.844 2.286 2.286 0 001.616.616 2.334 2.334 0 001.446-.439 1.814 1.814 0 00.713-1.171h1.269a3 3 0 01-1.752 2.251 3.882 3.882 0 01-1.622.326 3.694 3.694 0 01-1.832-.445 3.142 3.142 0 01-1.25-1.276 4.036 4.036 0 01-.452-1.956 4.077 4.077 0 01.452-1.962 3.135 3.135 0 011.25-1.282 3.694 3.694 0 011.832-.445 3.612 3.612 0 011.825.445 3.063 3.063 0 011.19 1.19 3.35 3.35 0 01.412 1.648 3.5 3.5 0 01-.052.654m-1.413-1.91a1.908 1.908 0 00-.824-.8 2.5 2.5 0 00-1.138-.262 2.355 2.355 0 00-1.648.609 2.451 2.451 0 00-.719 1.785h4.592a2.435 2.435 0 00-.262-1.334M208.279 102.28v1.046h-.889a2.282 2.282 0 01-1.642-.524 2.362 2.362 0 01-.543-1.752v-3.873h-1.073v-1.033h1.073v-1.793h1.2v1.793h1.858v1.033h-1.858v3.9a1.337 1.337 0 00.256.949 1.226 1.226 0 00.882.256zM214.839 96.498a3.19 3.19 0 011.283 1.282 3.99 3.99 0 01.465 1.962 3.95 3.95 0 01-.465 1.956 3.192 3.192 0 01-1.283 1.275 4.07 4.07 0 01-3.7 0 3.227 3.227 0 01-1.288-1.275 3.89 3.89 0 01-.472-1.956 3.929 3.929 0 01.472-1.962 3.225 3.225 0 011.288-1.282 4.076 4.076 0 013.7 0m-3.035.889a2.171 2.171 0 00-.877.884 2.973 2.973 0 00-.333 1.471 2.942 2.942 0 00.333 1.459 2.166 2.166 0 00.877.884 2.583 2.583 0 002.368 0 2.169 2.169 0 00.877-.884 2.942 2.942 0 00.333-1.459 2.973 2.973 0 00-.333-1.471 2.174 2.174 0 00-.877-.884 2.583 2.583 0 00-2.368 0M222.859 96.576a2.727 2.727 0 011.014 1.4v-4.331h1.19v9.681h-1.19v-1.831a2.72 2.72 0 01-1.014 1.4 2.95 2.95 0 01-1.772.524 3.255 3.255 0 01-1.7-.445 3.072 3.072 0 01-1.17-1.275 4.717 4.717 0 010-3.918 3.057 3.057 0 011.17-1.281 3.249 3.249 0 011.7-.445 2.954 2.954 0 011.772.523m-3.192 1.237a3.147 3.147 0 000 3.859 2.3 2.3 0 001.759.7 2.44 2.44 0 001.262-.326 2.277 2.277 0 00.87-.923 2.908 2.908 0 00.315-1.38 2.946 2.946 0 00-.315-1.386 2.223 2.223 0 00-.87-.923 2.488 2.488 0 00-1.262-.321 2.3 2.3 0 00-1.759.7M231.677 96.576a2.726 2.726 0 011.014 1.4v-1.831h1.19v7.182h-1.19v-1.831a2.719 2.719 0 01-1.014 1.4 2.95 2.95 0 01-1.772.524 3.255 3.255 0 01-1.7-.445 3.072 3.072 0 01-1.17-1.275 4.717 4.717 0 010-3.918 3.057 3.057 0 011.17-1.281 3.248 3.248 0 011.7-.445 2.954 2.954 0 011.772.523m-3.192 1.237a3.147 3.147 0 000 3.859 2.3 2.3 0 001.759.7 2.44 2.44 0 001.262-.326 2.277 2.277 0 00.87-.923 2.908 2.908 0 00.315-1.38 2.946 2.946 0 00-.315-1.386 2.223 2.223 0 00-.87-.923 2.488 2.488 0 00-1.262-.32 2.3 2.3 0 00-1.759.7M239.984 96.687a2.675 2.675 0 01.894 1.707h-1.138a1.65 1.65 0 00-.529-1.053 1.727 1.727 0 00-1.21-.412 1.5 1.5 0 00-1 .308 1.039 1.039 0 00-.36.83.862.862 0 00.242.635 1.566 1.566 0 00.6.366 10.1 10.1 0 00.987.268 9.933 9.933 0 011.289.372 2.028 2.028 0 01.837.609 1.709 1.709 0 01.347 1.125 1.769 1.769 0 01-.661 1.425 2.663 2.663 0 01-1.759.549 3.37 3.37 0 01-2.094-.615 2.451 2.451 0 01-.955-1.713h1.152a1.5 1.5 0 00.569 1.06 2.056 2.056 0 001.329.405 1.38 1.38 0 00.962-.314 1.06 1.06 0 00.346-.824.9.9 0 00-.248-.668 1.638 1.638 0 00-.615-.379 9.022 9.022 0 00-1.007-.275 9.8 9.8 0 01-1.275-.366 1.954 1.954 0 01-.811-.583 1.626 1.626 0 01-.334-1.08 1.809 1.809 0 01.668-1.459 2.756 2.756 0 011.819-.555 2.905 2.905 0 011.956.634M250.489 96.576a2.727 2.727 0 011.014 1.4v-1.831h1.19v7.182h-1.19v-1.831a2.72 2.72 0 01-1.014 1.4 2.95 2.95 0 01-1.772.524 3.255 3.255 0 01-1.7-.445 3.072 3.072 0 01-1.17-1.275 4.717 4.717 0 010-3.918 3.057 3.057 0 011.17-1.281 3.248 3.248 0 011.7-.445 2.954 2.954 0 011.772.523m-3.192 1.237a3.148 3.148 0 000 3.859 2.3 2.3 0 001.759.7 2.44 2.44 0 001.262-.326 2.276 2.276 0 00.87-.923 2.907 2.907 0 00.315-1.38 2.946 2.946 0 00-.315-1.386 2.222 2.222 0 00-.87-.923 2.488 2.488 0 00-1.262-.32 2.3 2.3 0 00-1.759.7M258.798 96.687a2.673 2.673 0 01.9 1.707h-1.142a1.65 1.65 0 00-.529-1.053 1.728 1.728 0 00-1.21-.412 1.5 1.5 0 00-1 .308 1.039 1.039 0 00-.36.83.862.862 0 00.241.635 1.566 1.566 0 00.6.366 10.1 10.1 0 00.987.268 9.933 9.933 0 011.289.372 2.027 2.027 0 01.837.609 1.709 1.709 0 01.347 1.125 1.769 1.769 0 01-.661 1.425 2.663 2.663 0 01-1.759.549 3.369 3.369 0 01-2.094-.615 2.45 2.45 0 01-.955-1.713h1.152a1.5 1.5 0 00.569 1.06 2.055 2.055 0 001.329.405 1.381 1.381 0 00.962-.314 1.06 1.06 0 00.346-.824.9.9 0 00-.248-.668 1.638 1.638 0 00-.615-.379 9.015 9.015 0 00-1.007-.275 9.8 9.8 0 01-1.275-.366 1.954 1.954 0 01-.811-.583 1.626 1.626 0 01-.334-1.08 1.809 1.809 0 01.668-1.459 2.756 2.756 0 011.819-.555 2.9 2.9 0 011.956.634M275.438 96.832a3.243 3.243 0 01.766 2.322v4.174h-1.194v-4.069a2.312 2.312 0 00-.518-1.622 1.832 1.832 0 00-1.419-.563 1.948 1.948 0 00-1.51.622 2.612 2.612 0 00-.57 1.825v3.808h-1.183V99.26a2.293 2.293 0 00-.524-1.622 1.835 1.835 0 00-1.413-.563 1.964 1.964 0 00-1.523.622 2.612 2.612 0 00-.569 1.825v3.808h-1.19v-7.183h1.19v1.636a2.334 2.334 0 01.936-1.3 2.919 2.919 0 013.14.014 2.517 2.517 0 01.961 1.367 2.6 2.6 0 011.007-1.354 2.787 2.787 0 011.6-.478 2.659 2.659 0 012.022.8M282.767 96.576a2.726 2.726 0 011.014 1.4v-1.831h1.19v7.182h-1.19v-1.831a2.719 2.719 0 01-1.014 1.4 2.95 2.95 0 01-1.772.524 3.255 3.255 0 01-1.7-.445 3.072 3.072 0 01-1.17-1.275 4.717 4.717 0 010-3.918 3.057 3.057 0 011.17-1.281 3.248 3.248 0 011.7-.445 2.954 2.954 0 011.772.523m-3.192 1.237a3.147 3.147 0 000 3.859 2.3 2.3 0 001.759.7 2.44 2.44 0 001.262-.326 2.277 2.277 0 00.87-.923 2.908 2.908 0 00.315-1.38 2.947 2.947 0 00-.315-1.386 2.222 2.222 0 00-.87-.923 2.488 2.488 0 00-1.262-.32 2.3 2.3 0 00-1.759.7M289.09 96.439a3.073 3.073 0 011.622-.412v1.3h-.366a2.549 2.549 0 00-1.649.516 2.071 2.071 0 00-.641 1.707v3.781h-1.19v-7.183h1.19v1.449a2.643 2.643 0 011.034-1.159M297.345 96.787a3.112 3.112 0 011.113 1.962h-1.257a1.831 1.831 0 00-.713-1.21 2.518 2.518 0 00-2.59-.151 2.1 2.1 0 00-.831.883 3.606 3.606 0 000 2.943 2.1 2.1 0 00.831.884 2.5 2.5 0 002.59-.158 1.855 1.855 0 00.713-1.216h1.257a3.094 3.094 0 01-1.113 1.968 3.514 3.514 0 01-2.276.727 3.692 3.692 0 01-1.831-.445 3.142 3.142 0 01-1.25-1.275 4.477 4.477 0 010-3.918 3.132 3.132 0 011.25-1.282 3.691 3.691 0 011.831-.445 3.492 3.492 0 012.276.733M304.731 96.576a2.727 2.727 0 011.014 1.4v-1.831h1.19v7.182h-1.19v-1.831a2.72 2.72 0 01-1.014 1.4 2.949 2.949 0 01-1.772.524 3.254 3.254 0 01-1.7-.445 3.072 3.072 0 01-1.17-1.275 4.717 4.717 0 010-3.918 3.057 3.057 0 011.17-1.281 3.248 3.248 0 011.7-.445 2.954 2.954 0 011.772.523m-3.192 1.237a3.147 3.147 0 000 3.859 2.3 2.3 0 001.759.7 2.441 2.441 0 001.262-.326 2.277 2.277 0 00.87-.923 2.908 2.908 0 00.315-1.38 2.946 2.946 0 00-.315-1.386 2.223 2.223 0 00-.87-.923 2.488 2.488 0 00-1.262-.32 2.3 2.3 0 00-1.759.7M313.039 96.687a2.673 2.673 0 01.9 1.707h-1.138a1.65 1.65 0 00-.529-1.053 1.728 1.728 0 00-1.21-.412 1.5 1.5 0 00-1 .308 1.039 1.039 0 00-.36.83.862.862 0 00.241.635 1.566 1.566 0 00.6.366 10.1 10.1 0 00.987.268 9.932 9.932 0 011.289.372 2.028 2.028 0 01.837.609 1.709 1.709 0 01.347 1.125 1.769 1.769 0 01-.661 1.425 2.663 2.663 0 01-1.759.549 3.369 3.369 0 01-2.094-.615 2.45 2.45 0 01-.955-1.713h1.152a1.5 1.5 0 00.569 1.06 2.055 2.055 0 001.329.405 1.381 1.381 0 00.962-.314 1.06 1.06 0 00.346-.824.9.9 0 00-.248-.668 1.638 1.638 0 00-.615-.379 9.019 9.019 0 00-1.007-.275 9.8 9.8 0 01-1.275-.366 1.954 1.954 0 01-.811-.583 1.626 1.626 0 01-.334-1.08 1.808 1.808 0 01.668-1.459 2.756 2.756 0 011.819-.555 2.9 2.9 0 011.956.634"/></g></svg>