<svg xmlns="http://www.w3.org/2000/svg" width="80.002" height="80.002"><defs><style>.c{fill:#fff}</style></defs><g transform="translate(.002 .002)"><circle cx="40" cy="40" r="40" fill="#1c89f2"/><path class="c" d="M33.06 49.341a1.641 1.641 0 00-2.9 0l-6.734 12.02a.932.932 0 00.363 1.3.972.972 0 001.376-.363l5.575-9.558v12.459a.974.974 0 00.941 1.013.932.932 0 00.941-1.013V52.743l5.5 9.558a.988.988 0 001.738-.94zM64.34 23.049a4.924 4.924 0 11-4.924-4.924 4.925 4.925 0 014.924 4.924M48.41 43.474a1.036 1.036 0 01-1.014 1.014h-31.57a.99.99 0 01-1.014-1.014V21.825a.932.932 0 011.014-.941h31.565a.976.976 0 011.014.941v6.083l2.9-.508v-7.674a1.809 1.809 0 00-1.883-1.81H36.534v-.072a1.452 1.452 0 00-1.448-1.448h-6.878a1.469 1.469 0 00-1.448 1.52v.073H13.799a1.768 1.768 0 00-1.883 1.81v25.775a1.887 1.887 0 001.883 1.955h35.625a1.931 1.931 0 001.883-1.955V34.353l-2.9.506z"/><path class="c" d="M55.019 28.291a1.36 1.36 0 01.6.088 6.5 6.5 0 003.8 1.218 6.934 6.934 0 003.188-.83c.208.1.459.181.721.271a3.251 3.251 0 01.983.434 4.183 4.183 0 01.466.941c.958 2.414 1.728 4.939 2.471 7.381.66 2.166 1.343 4.408 2.159 6.583a1.68 1.68 0 01-.843 2.141 1.618 1.618 0 01-.635.131 1.707 1.707 0 01-1.558-1.043l-1.665-4.344-.6-1.578v24.569a1.957 1.957 0 01-3.864 0V49.99a.811.811 0 00-.82-.819.743.743 0 00-.746.819v14.195a1.861 1.861 0 01-1.86 1.859 1.933 1.933 0 01-1.931-1.931V32.025l-.368.065-12.315 2.173a1.619 1.619 0 01-.325.032 1.687 1.687 0 01-1.625-1.38 1.656 1.656 0 011.341-1.948c1.016-.183 2.031-.381 3.046-.581s2.024-.4 3.036-.579c1.085-.2 1.884-.389 2.81-.613.433-.1.888-.214 1.416-.334a13.214 13.214 0 013.124-.57M38.2 36.524a1.209 1.209 0 10-1.014-1.376v.508l-2.389 1.665a3.534 3.534 0 00-.508-.218 1.413 1.413 0 00-.58.073l-3.693-5.285a.436.436 0 00.073-.29 1.208 1.208 0 00-2.389-.361v.436l-2.753 1.955a.656.656 0 00-.506-.218h-.508l-5-7.168a1.03 1.03 0 00.145-.435 1.209 1.209 0 10-1.376 1.014h.439l5.068 7.241c-.071.145-.071.216-.145.361a1.209 1.209 0 002.39.363V34.5l2.824-1.956a1.03 1.03 0 00.435.145 1.433 1.433 0 00.579-.071l3.693 5.285a.436.436 0 00-.073.29 1.209 1.209 0 002.39.361v-.361l2.461-1.739c.147-.002.292.07.437.07z"/></g></svg>