<svg xmlns="http://www.w3.org/2000/svg" width="56" height="56"><defs><style>.a{fill:#fff}</style></defs><path class="a" d="M36.037 31.454a1.207 1.207 0 00-.26-.109l-3.1-.891a1.157 1.157 0 00-1.145.3l-.759.773a1.131 1.131 0 01-1.23.259c-.05-.02-.1-.043-.155-.068l-.052-.026-.114-.056-.065-.035-.112-.062-.068-.039-.12-.072-.066-.04a5.157 5.157 0 01-.136-.087l-.056-.036-.193-.129H28.4c-.14-.1-.285-.2-.432-.31l-.029-.021-.191-.145-.035-.027-.194-.151a.342.342 0 00-.028-.022l-.213-.173h-.007a22.195 22.195 0 01-1.139-1 11.471 11.471 0 01-1.935-2.209 1.132 1.132 0 01.089-1.254l.663-.857a1.159 1.159 0 00.143-1.176l-1.306-2.954a1.159 1.159 0 00-1.808-.414 5.225 5.225 0 00-2.019 3.08c-.22 2.176.712 4.917 4.239 8.21 3.184 2.971 5.873 3.928 7.909 3.959a6.252 6.252 0 001.555-.168 5.223 5.223 0 002.776-2.42 1.161 1.161 0 00-.4-1.626"/><path class="a" d="M28 .002a28 28 0 1028 28 28 28 0 00-28-28m16.019 28.38c-.013.414-.047.822-.09 1.227-.014.129-.025.258-.042.386v.007a15.857 15.857 0 01-.722 3.061l-.015.041c-.08.231-.165.461-.256.688a16.033 16.033 0 01-22.029 8.431l-8.093 1.917a.627.627 0 01-.112.015h-.022a.6.6 0 01-.211-.033l-.017-.006a.625.625 0 01-.18-.1l-.012-.011a.621.621 0 01-.132-.161l-.009-.015a.623.623 0 01-.06-.418l1.7-8.259a16.028 16.028 0 0125.22-18.992q.453.425.874.882l.04.046c.078.086.156.172.233.26l.073.086c.065.075.129.15.192.226l.087.108.17.212.093.12.157.206.1.131.145.2c.033.047.064.094.1.14.045.066.091.132.135.2.033.049.065.1.1.147.043.066.086.132.127.2s.064.1.1.153.081.132.12.2l.093.158.114.2.09.164c.036.065.072.131.107.2l.088.169.1.2.084.173c.032.067.064.133.1.2l.081.177.089.2c.029.066.051.12.076.18l.084.2c.027.064.049.122.072.183s.053.137.078.206l.069.187.072.206.064.19c.021.063.045.139.066.209l.06.193a22.336 22.336 0 01.115.405l.056.214c.018.072.034.13.049.2s.034.143.05.215.031.133.045.2l.044.217.04.2c.013.066.026.147.038.221s.024.133.034.2l.034.226.028.2.028.229.023.2.021.234c.007.078.013.132.018.2l.016.243.012.193c0 .084.006.17.009.255 0 .061.005.122.007.183V27.948c0 .147 0 .3-.008.444"/></svg>