<svg xmlns="http://www.w3.org/2000/svg" width="56" height="56"><defs><style>.a{fill:#fff}</style></defs><path class="a" d="M55.969 26.702v-.05q-.015-.316-.038-.631v-.042q-.024-.33-.056-.659v-.006a27.871 27.871 0 00-1.025-5.285 25.907 25.907 0 00-.191-.617l-.021-.067q-.09-.275-.184-.546l-.05-.143q-.082-.232-.169-.464-.042-.114-.087-.228c-.047-.124-.1-.248-.145-.371-.042-.107-.086-.213-.13-.319l-.116-.276-.177-.405-.082-.183q-.111-.244-.228-.487l-.045-.1a32.09 32.09 0 00-.278-.557l-.01-.02a27.987 27.987 0 00-5.139-7.044 28.001 28.001 0 00-39.6 39.6 27.956 27.956 0 008.248 5.713l.081.036q.252.114.507.222l.175.073q.208.089.418.171c.091.037.182.072.272.107.109.042.218.084.328.124l.367.134c.08.028.159.057.239.084q.227.078.454.153l.159.051c.176.057.352.111.529.164l.092.027c.2.058.392.113.589.167l.041.011c.21.056.421.111.633.162h.005q1.3.316 2.638.511h.019c.212.031.426.059.64.085l.053.006c.2.024.4.046.609.066l.1.008q.282.027.567.048l.157.01c.172.011.344.022.517.031l.221.008c.154.006.308.013.463.017h.266c.139 0 .277.005.416.005.163 0 .326 0 .488-.006h.187c.181-.005.361-.012.54-.02l.139-.005c.2-.009.4-.022.6-.036h.07q.327-.024.653-.055h.008a27.924 27.924 0 006.573-1.44h.011c.2-.071.4-.143.6-.218l.084-.032.52-.2.162-.067c.146-.06.292-.12.436-.183l.239-.1.355-.16c.1-.047.207-.1.31-.144l.278-.134c.125-.06.249-.122.373-.185l.212-.108q.211-.109.421-.222l.159-.086q.23-.126.456-.255l.122-.07c.159-.092.317-.185.474-.281.034-.02.068-.04.1-.061l.478-.3.1-.062c.156-.1.313-.2.468-.308l.1-.07q.223-.153.446-.309l.127-.092.41-.3.167-.126c.121-.091.242-.183.361-.276l.222-.176.3-.241.3-.248c.073-.061.146-.121.218-.184.138-.118.274-.239.409-.36l.1-.087a28.076 28.076 0 002.012-2.012l.079-.089c.124-.138.248-.278.369-.419.06-.069.118-.139.177-.209.085-.1.171-.2.255-.305l.234-.291c.061-.076.123-.152.183-.23q.137-.176.27-.352l.133-.176q.148-.2.292-.4l.1-.138q.153-.216.3-.435l.078-.115q.153-.228.3-.458l.068-.106c.1-.155.2-.311.292-.468l.068-.112a26.798 26.798 0 00.351-.597q.126-.221.248-.444l.093-.171q.109-.2.216-.409l.115-.225c.06-.12.12-.239.178-.359l.14-.293.138-.3c.057-.123.112-.247.167-.371.032-.074.065-.148.1-.223q.1-.225.19-.453l.059-.145c.072-.178.142-.358.211-.538l.025-.065a27.871 27.871 0 001.76-8.533v-.006a28.196 28.196 0 00.002-2.636m-13.324-4.104v11.4a4.249 4.249 0 01-4.248 4.25H18.477a4.249 4.249 0 01-4.247-4.25v-11.4a4.248 4.248 0 014.247-4.25h19.928a4.248 4.248 0 014.251 4.25z"/><path class="a" d="M25.598 33.102l8.117-5.352-8.117-5.348z"/></svg>