<svg xmlns="http://www.w3.org/2000/svg" width="80.002" height="80.002" viewBox="0 0 80.002 80.002"><defs><style>.a{fill:#1c89f2;}.b,.c{fill:#fff;}.b{opacity:0;}</style></defs><g transform="translate(0.002)"><circle class="a" cx="40" cy="40" r="40"/><g transform="translate(-0.002)"><path class="b" d="M348.7,80.806h-70a5,5,0,0,1-5-5V5.8a5,5,0,0,1,5-5h70a5,5,0,0,1,5,5v70a5,5,0,0,1-5,5" transform="translate(-273.702 -0.804)"/><g transform="translate(9.835 19.019)"><path class="c" d="M339.724,36.757,334.016,36l-3.488-10.464a2.8,2.8,0,0,0-2.664-1.9H318.1v-5.39a2.205,2.205,0,0,0-2.219-2.22H283.789a2.206,2.206,0,0,0-2.219,2.22V49.947a2.841,2.841,0,0,0,2.854,2.854h4.5a7.99,7.99,0,0,0,15.981,0H318.86a7.99,7.99,0,1,0,15.98,0h4.5a2.409,2.409,0,0,0,2.41-2.41V39.1A2.239,2.239,0,0,0,339.724,36.757ZM296.98,57.96a5.223,5.223,0,1,1,5.223-5.223,5.353,5.353,0,0,1-5.223,5.223m17.186-12.685h-28.6A1.259,1.259,0,0,1,284.3,44.01V20.118a1.26,1.26,0,0,1,1.265-1.265h28.6a1.26,1.26,0,0,1,1.265,1.265V44.01A1.26,1.26,0,0,1,314.166,45.275Zm4.871-8.983a1.412,1.412,0,0,1-1.429-1.405V27.158a1.411,1.411,0,0,1,1.429-1.405h8.412a1.46,1.46,0,0,1,1.35.936l2.778,8.119a1.019,1.019,0,0,1-1.033,1.328Zm7.876,21.642a5.2,5.2,0,1,1,5.2-5.2,5.327,5.327,0,0,1-5.2,5.2" transform="translate(-281.57 -16.019)"/><path class="c" d="M307.659,33.471H288.824a.771.771,0,0,0-.76.761V35.69a.77.77,0,0,0,.76.761h18.835a.772.772,0,0,0,.761-.761V34.232a.818.818,0,0,0-.761-.761" transform="translate(-279.946 -11.655)"/><path class="c" d="M289.469,28.3h1.839V33.75a.772.772,0,0,0,.761.761h1.4a.772.772,0,0,0,.761-.761V28.3H296a.989.989,0,0,0,.824-.508,1,1,0,0,0-.062-.951l-3.3-4.5a.889.889,0,0,0-1.459,0l-3.3,4.566a.862.862,0,0,0-.064.951A.912.912,0,0,0,289.469,28.3Z" transform="translate(-279.83 -14.535)"/><path class="c" d="M298.03,28.3h1.839V33.75a.772.772,0,0,0,.761.761h1.459a.772.772,0,0,0,.761-.761V28.3h1.775a.989.989,0,0,0,.825-.508,1.006,1.006,0,0,0-.064-.951l-3.3-4.5a.889.889,0,0,0-1.459,0l-3.3,4.566a.862.862,0,0,0-.064.951A.88.88,0,0,0,298.03,28.3Z" transform="translate(-277.673 -14.535)"/></g></g></g></svg>