<svg xmlns="http://www.w3.org/2000/svg" width="80.002" height="80.002" viewBox="0 0 80.002 80.002"><defs><style>.a{fill:#1c89f2;}.b,.c{fill:#fff;}.b{opacity:0;}</style></defs><g transform="translate(0.002 0.002)"><circle class="a" cx="40" cy="40" r="40"/><g transform="translate(-0.002 -0.002)"><path class="b" d="M144.193,80.806h-70a5,5,0,0,1-5-5V5.8a5,5,0,0,1,5-5h70a5,5,0,0,1,5,5v70a5,5,0,0,1-5,5" transform="translate(-69.191 -0.804)"/><g transform="translate(11.918 16.398)"><path class="c" d="M97.592,40.451a1.641,1.641,0,0,0-2.9,0l-6.734,12.02a.932.932,0,0,0,.363,1.3.972.972,0,0,0,1.376-.363l5.575-9.558V56.309a.974.974,0,0,0,.941,1.013.932.932,0,0,0,.941-1.013V43.853l5.5,9.558a.988.988,0,0,0,1.738-.94Z" transform="translate(-76.448 -7.506)"/><path class="c" d="M122.633,20.229a4.924,4.924,0,1,1-4.924-4.924,4.925,4.925,0,0,1,4.924,4.924" transform="translate(-70.209 -13.576)"/><path class="c" d="M115.219,41a1.036,1.036,0,0,1-1.014,1.014H82.635A.99.99,0,0,1,81.621,41V19.351a.932.932,0,0,1,1.014-.941H114.2a.976.976,0,0,1,1.014.941v6.083l2.9-.508V17.252a1.809,1.809,0,0,0-1.883-1.81H103.343V15.37a1.452,1.452,0,0,0-1.448-1.448H95.017a1.469,1.469,0,0,0-1.448,1.52v.073H80.608a1.768,1.768,0,0,0-1.883,1.81V43.1a1.887,1.887,0,0,0,1.883,1.955h35.625a1.931,1.931,0,0,0,1.883-1.955V31.879l-2.9.506Z" transform="translate(-78.725 -13.922)"/><path class="c" d="M116.168,23.438a1.36,1.36,0,0,1,.6.088,6.5,6.5,0,0,0,3.8,1.218,6.934,6.934,0,0,0,3.188-.83c.208.1.459.181.721.271a3.251,3.251,0,0,1,.983.434,4.183,4.183,0,0,1,.466.941c.958,2.414,1.728,4.939,2.471,7.381.66,2.166,1.343,4.408,2.159,6.583a1.68,1.68,0,0,1-.843,2.141,1.618,1.618,0,0,1-.635.131,1.707,1.707,0,0,1-1.558-1.043l-1.665-4.344-.6-1.578V59.4a1.957,1.957,0,0,1-3.864,0V45.137a.811.811,0,0,0-.82-.819.743.743,0,0,0-.746.819V59.332a1.861,1.861,0,0,1-1.86,1.859,1.933,1.933,0,0,1-1.931-1.931V27.172l-.368.065-12.315,2.173a1.619,1.619,0,0,1-.325.032,1.687,1.687,0,0,1-1.625-1.38,1.656,1.656,0,0,1,1.341-1.948c1.016-.183,2.031-.381,3.046-.581s2.024-.4,3.036-.579c1.085-.2,1.884-.389,2.81-.613.433-.1.888-.214,1.416-.334a13.214,13.214,0,0,1,3.124-.57" transform="translate(-73.065 -11.543)"/><path class="c" d="M104.059,32.448a1.209,1.209,0,1,0-1.014-1.376v.508l-2.389,1.665a3.534,3.534,0,0,0-.508-.218,1.413,1.413,0,0,0-.58.073l-3.693-5.285a.436.436,0,0,0,.073-.29,1.208,1.208,0,0,0-2.389-.361V27.6l-2.753,1.955a.656.656,0,0,0-.506-.218h-.508l-5-7.168a1.03,1.03,0,0,0,.145-.435,1.209,1.209,0,1,0-1.376,1.014H84l5.068,7.241c-.071.145-.071.216-.145.361a1.209,1.209,0,0,0,2.39.363v-.289l2.824-1.956a1.03,1.03,0,0,0,.435.145,1.433,1.433,0,0,0,.579-.071l3.693,5.285a.436.436,0,0,0-.073.29,1.209,1.209,0,0,0,2.39.361v-.361l2.461-1.739C103.769,32.376,103.914,32.448,104.059,32.448Z" transform="translate(-77.775 -12.32)"/></g></g></g></svg>